# xmcd
#
# Track frame offsets:
#	150
#	13090
#	27120
#	45480
#	60360
#	82130
#	100150
#	111556
#	127893
#	141166
#
# Disc length: 2078 seconds
#
# Revision: 0
# Processed by: cddbd v1.5.1PL0 Copyright (c) Steve Scherf et al.
# Submitted via: dBpowerAMP V4.0
#
DISCID=7f081c0a
DTITLE=Mark Chesnutt - Almost Goodbye
DYEAR=1993
DGENRE=Country
TTITLE0=It Sure Is Monday
TTITLE1=Woman, Sensuous Woman
TTITLE2=Almost Goodbye
TTITLE3=I Just Wanted You To Know
TTITLE4=April's Fool
TTITLE5=Texas Is Bigger Than It Used To Be
TTITLE6=My Heart's Too Broke (To Pay Attention)
TTITLE7=Vickie Vance Gotta Dance
TTITLE8=Till A Better Memory Comes Along
TTITLE9=The Will
EXTD=
EXTT0=
EXTT1=
EXTT2=
EXTT3=
EXTT4=
EXTT5=
EXTT6=
EXTT7=
EXTT8=
EXTT9=
PLAYORDER=
